<svg width="650" height="463" xmlns="http://www.w3.org/2000/svg">
 <!-- Generator: Sketch 52.3 (67297) - http://www.bohemiancoding.com/sketch -->

 <title>Speed Chart Combined</title>
 <desc>Created with Sketch.</desc>
 <g>
  <title>background</title>
  <rect x="-1" y="-1" width="652" height="465" id="canvas_background" fill="none"/>
 </g>
 <g>
  <title>Layer 1</title>
  <g id="HelloSign-Home-Page" fill="none" fill-rule="evenodd">
   <path d="m575.67451,-1.99999l69.15018,68.57468l1.17524,382.15973c0.02227,7.24212 -5.88061,13.13091 -13.18446,13.153c-0.01343,0.00004 -0.02688,0.00006 -0.04032,0.00006l-620.55031,0c-7.30387,0 -13.22484,-5.87092 -13.22484,-13.11307l3.05189,-448.757l573.62262,-2.0174z" id="Card" fill="#F7F8F9" fill-rule="nonzero" stroke="#e5e5e5"/>
   <path d="m566,-4l68,68l-53,0c-8.28427,0 -15,-6.71573 -15,-15l0,-53z" id="Corner" fill="#CBD3D9" fill-rule="nonzero"/>
   <path d="m57,377.5l520,1.01172l-520,-1.01172zm0,-61l520,1.01172l-520,-1.01172zm0,-58l520,1.01172l-520,-1.01172zm0,-61l520,1.01172l-520,-1.01172z" id="Horizontal-Lines" stroke="#DEDEDE" fill-rule="nonzero"/>
   <path d="m127.80726,40.1056l8.44549,-1.95175l-19.20879,23.25274l4.40153,-16.1056l-8.44549,1.95176l19.20879,-23.25275l-4.40153,16.1056z" id="Thunder" fill="#36B24A" fill-rule="nonzero"/>
   <g id="Group-6" fill-rule="nonzero" stroke="null">
    <path d="m116.08088,316l0,61" id="Column-1" stroke-width="21" stroke-linecap="round" stroke="#36b24a"/>
    <circle id="Point---Column-1" fill="#1A1A1A" cx="116.080883" cy="316.5" r="4.301471" stroke="#36b24a"/>
   </g>
   <g id="Group" fill-rule="nonzero" stroke="null">
    <g id="Group-5" stroke="null">
     <path d="m158.1439,359l0,18.19745" id="Column-1" stroke-width="21" stroke-linecap="round" stroke="#E1E1E1"/>
     <ellipse id="Point---Column-1" fill="#1A1A1A" cx="158.177439" cy="358.549364" rx="4.339203" ry="4.549364" stroke="null"/>
    </g>
   </g>
   <path d="m119.17404,411.77777l6.94361,-1.66966l-15.79284,19.89189l3.6188,-13.77777l-6.94361,1.66966l15.79284,-19.89189l-3.6188,13.77777z" id="Thunder-Copy-3" fill="#36b24a" fill-rule="nonzero" stroke="null"/>
   <path d="m146.82952,415.47368l-1.36163,0c-0.68073,0 -1.23258,-0.57731 -1.23258,-1.28947c0,-0.71216 0.55185,-1.28947 1.23258,-1.28947l1.36163,0c0.56465,-5.14156 4.46475,-9.22167 9.37948,-9.81238l0,-1.79289c0,-0.71215 0.55184,-1.28947 1.23258,-1.28947c0.68074,0 1.23258,0.57732 1.23258,1.28947l0,1.79289c4.91473,0.59071 8.81483,4.67082 9.37948,9.81238l1.71379,0c0.68074,0 1.23259,0.57731 1.23259,1.28947c0,0.71216 -0.55185,1.28947 -1.23259,1.28947l-1.71379,0c-0.56465,5.14156 -4.46475,9.22167 -9.37948,9.81238l0,1.42447c0,0.71215 -0.55184,1.28947 -1.23258,1.28947c-0.68074,0 -1.23258,-0.57732 -1.23258,-1.28947l0,-1.42447c-4.91473,-0.59071 -8.81483,-4.67082 -9.37948,-9.81238zm13.71667,-5.96717l-4.83614,6.93288l-1.99821,-1.89158c-0.46289,-0.4382 -1.16625,-0.38715 -1.57099,0.11403c-0.40473,0.50117 -0.35758,1.26269 0.10532,1.70089l2.89863,2.74397c0.48652,0.46055 1.2318,0.37736 1.62129,-0.18099l5.55698,-7.96625c0.37058,-0.53125 0.27322,-1.28716 -0.21745,-1.68838c-0.49068,-0.40122 -1.18885,-0.29581 -1.55943,0.23543z" id="Target-Copy-2" fill="#00b3e6" fill-rule="nonzero" stroke="null"/>
   <path d="m268.73592,413.77777l7.26408,-1.66966l-16.52174,19.89189l3.78582,-13.77777l-7.26408,1.66966l16.52174,-19.89189l-3.78582,13.77777z" id="Thunder-Copy-2" fill="#36B24A" fill-rule="nonzero"/>
   <g id="Group-3" fill-rule="nonzero">
    <path d="m264.5,274.50481l0,103.97855" id="Column-2" stroke="#36b24a" stroke-width="21" stroke-linecap="round"/>
    <circle id="Point---Column-2" fill="#1A1A1A" cx="264.5" cy="273.5" r="4.5" stroke="#36b24a"/>
   </g>
   <g id="Group-2" fill-rule="nonzero" stroke="null">
    <path d="m306.9928,281.15248l0,98.28632" id="Column-2" stroke-width="21" stroke-linecap="round" stroke="#00b3e6"/>
    <ellipse id="Point---Column-2" fill="#1A1A1A" cx="307.039474" cy="281.057206" rx="6.039473" ry="5.057208" stroke="#00b3e6"/>
   </g>
   <path d="m299.71394,417.47368l-1.42447,0c-0.71215,0 -1.28947,-0.57731 -1.28947,-1.28947c0,-0.71216 0.57732,-1.28947 1.28947,-1.28947l1.42447,0c0.59071,-5.14156 4.67082,-9.22167 9.81238,-9.81238l0,-1.79289c0,-0.71215 0.57731,-1.28947 1.28947,-1.28947c0.71216,0 1.28947,0.57732 1.28947,1.28947l0,1.79289c5.14156,0.59071 9.22167,4.67082 9.81238,9.81238l1.79289,0c0.71215,0 1.28947,0.57731 1.28947,1.28947c0,0.71216 -0.57732,1.28947 -1.28947,1.28947l-1.79289,0c-0.59071,5.14156 -4.67082,9.22167 -9.81238,9.81238l0,1.42447c0,0.71215 -0.57731,1.28947 -1.28947,1.28947c-0.71216,0 -1.28947,-0.57732 -1.28947,-1.28947l0,-1.42447c-5.14156,-0.59071 -9.22167,-4.67082 -9.81238,-9.81238zm14.34975,-5.96717l-5.05935,6.93288l-2.09043,-1.89158c-0.48426,-0.4382 -1.22008,-0.38715 -1.6435,0.11403c-0.42341,0.50117 -0.37408,1.26269 0.11018,1.70089l3.03242,2.74397c0.50897,0.46055 1.28865,0.37736 1.69611,-0.18099l5.81346,-7.96625c0.38768,-0.53125 0.28583,-1.28716 -0.22749,-1.68838c-0.51332,-0.40122 -1.24372,-0.29581 -1.6314,0.23543z" id="Target-Copy" fill="#00B3E6" fill-rule="nonzero"/>
   <path d="m464.73592,413.77777l7.26408,-1.66966l-16.52174,19.89189l3.78582,-13.77777l-7.26408,1.66966l16.52174,-19.89189l-3.78582,13.77777z" id="Thunder-Copy-4" fill="#36B24A" fill-rule="nonzero"/>
   <g id="Group-10" fill-rule="evenodd">
    <path d="m461.5,195.00003l0,182" id="Column-3" stroke="#36b24a" stroke-width="21" stroke-linecap="round" fill-rule="nonzero"/>
    <circle id="Point---Column-3" fill="#070707" fill-rule="nonzero" cx="461.5" cy="195.500027" r="4.5" stroke="#36b24a"/>
   </g>
   <path d="m451.97,168.24c0.45334,0.46667 1.01333,0.83666 1.68,1.11c0.66667,0.27333 1.33333,0.41 2,0.41c0.8,0 1.42,-0.15667 1.86,-0.47c0.44,-0.31334 0.66,-0.73 0.66,-1.25c0,-0.54667 -0.21667,-0.94667 -0.65,-1.2c-0.43334,-0.25333 -1.10999,-0.38 -2.03,-0.38c-0.97334,0 -1.52667,0.00667 -1.66,0.02l0,-2.48c0.16,0.01333 0.71333,0.02 1.66,0.02c0.76,0 1.36,-0.12333 1.8,-0.37c0.44,-0.24667 0.66,-0.61666 0.66,-1.11c0,-0.50667 -0.23,-0.9 -0.69,-1.18c-0.46,-0.28 -1.05666,-0.42 -1.79,-0.42c-1.29334,0 -2.42666,0.46666 -3.4,1.4l-1.4,-1.76c0.57334,-0.65334 1.29,-1.17 2.15,-1.55c0.86,-0.38 1.84333,-0.57 2.95,-0.57c1.56001,0 2.79,0.32666 3.69,0.98c0.90001,0.65334 1.35,1.53333 1.35,2.64c0,0.8 -0.28666,1.47 -0.86,2.01c-0.57334,0.54 -1.26,0.88333 -2.06,1.03c0.49334,0.05333 0.98,0.21 1.46,0.47c0.48,0.26 0.87667,0.62333 1.19,1.09c0.31334,0.46667 0.47,1.01333 0.47,1.64c0,0.76 -0.21666,1.43666 -0.65,2.03c-0.43333,0.59334 -1.04666,1.05667 -1.84,1.39c-0.79334,0.33333 -1.71666,0.5 -2.77,0.5c-1.17334,0 -2.21333,-0.19666 -3.12,-0.59c-0.90667,-0.39334 -1.62,-0.91 -2.14,-1.55l1.48,-1.86zm14.9,0.5l-2.22,3.26l-2.82,0l3.42,-4.96l-3.22,-4.7l2.84,0l2,2.98l1.98,-2.98l2.84,0l-3.24,4.7l3.46,4.96l-2.84,0l-2.2,-3.26z" id="3x" fill="#1A1A1A" fill-rule="evenodd"/>
   <path d="m496.19,47.32l-2.2,2.26l-1.62,-1.7l4.2,-4.22l2.48,0l0,13.34l-2.86,0l0,-9.68zm4.86,3.02c0,-1.20001 0.20333,-2.32333 0.61,-3.37c0.40667,-1.04667 1.02333,-1.89333 1.85,-2.54c0.82667,-0.64667 1.84666,-0.97 3.06,-0.97c1.21334,0 2.23333,0.32333 3.06,0.97c0.82667,0.64667 1.44333,1.49333 1.85,2.54c0.40667,1.04667 0.61,2.16999 0.61,3.37c0,1.20001 -0.20333,2.32666 -0.61,3.38c-0.40667,1.05334 -1.02333,1.90333 -1.85,2.55c-0.82667,0.64667 -1.84666,0.97 -3.06,0.97c-1.21334,0 -2.23333,-0.32333 -3.06,-0.97c-0.82667,-0.64667 -1.44333,-1.49666 -1.85,-2.55c-0.40667,-1.05334 -0.61,-2.17999 -0.61,-3.38zm8.14,0c0,-1.32001 -0.21,-2.37666 -0.63,-3.17c-0.42,-0.79334 -1.08333,-1.19 -1.99,-1.19c-0.90667,0 -1.57333,0.39666 -2,1.19c-0.42667,0.79334 -0.64,1.84999 -0.64,3.17c0,1.32001 0.21333,2.38 0.64,3.18c0.42667,0.8 1.09333,1.2 2,1.2c0.90667,0 1.57,-0.4 1.99,-1.2c0.42,-0.8 0.63,-1.85999 0.63,-3.18zm8.62,3.4l-2.22,3.26l-2.82,0l3.42,-4.96l-3.22,-4.7l2.84,0l2,2.98l1.98,-2.98l2.84,0l-3.24,4.7l3.46,4.96l-2.84,0l-2.2,-3.26z" id="10x" fill="#1A1A1A" fill-rule="evenodd"/>
   <path d="m507.50439,80.42676l0,298.54884" id="Column-3" stroke-width="21" stroke-linecap="round" fill-rule="nonzero" fill="#000000" stroke="#00b3e6"/>
   <circle id="Point---Column-3" fill="#050404" fill-rule="nonzero" cx="507.5" cy="80.5" r="4.5" stroke="null"/>
   <path d="m552.50439,81.42676l0,298.54884" id="svg_55" stroke="#c700ff" stroke-width="21" stroke-linecap="round" fill-rule="nonzero"/>
   <path d="m498.71394,417.47368l-1.42447,0c-0.71215,0 -1.28947,-0.57731 -1.28947,-1.28947c0,-0.71216 0.57732,-1.28947 1.28947,-1.28947l1.42447,0c0.59071,-5.14156 4.67082,-9.22167 9.81238,-9.81238l0,-1.79289c0,-0.71215 0.57731,-1.28947 1.28947,-1.28947c0.71216,0 1.28947,0.57732 1.28947,1.28947l0,1.79289c5.14156,0.59071 9.22167,4.67082 9.81238,9.81238l1.79289,0c0.71215,0 1.28947,0.57731 1.28947,1.28947c0,0.71216 -0.57732,1.28947 -1.28947,1.28947l-1.79289,0c-0.59071,5.14156 -4.67082,9.22167 -9.81238,9.81238l0,1.42447c0,0.71215 -0.57731,1.28947 -1.28947,1.28947c-0.71216,0 -1.28947,-0.57732 -1.28947,-1.28947l0,-1.42447c-5.14156,-0.59071 -9.22167,-4.67082 -9.81238,-9.81238zm14.34975,-5.96717l-5.05935,6.93288l-2.09043,-1.89158c-0.48426,-0.4382 -1.22008,-0.38715 -1.6435,0.11403c-0.42341,0.50117 -0.37408,1.26269 0.11018,1.70089l3.03242,2.74397c0.50897,0.46055 1.28865,0.37736 1.69611,-0.18099l5.81346,-7.96625c0.38768,-0.53125 0.28583,-1.28716 -0.22749,-1.68838c-0.51332,-0.40122 -1.24372,-0.29581 -1.6314,0.23543z" id="Target-Copy-3" fill="#00B3E6" fill-rule="nonzero"/>
   <path d="m236.3247,46.49034l-1.70369,0c-0.83751,0 -1.51645,-0.67746 -1.51645,-1.51316c0,-0.83569 0.67894,-1.51316 1.51645,-1.51316l1.70369,0c0.69182,-6.04815 5.48034,-10.84808 11.5149,-11.5429l0,-2.10848c0,-0.83752 0.67746,-1.51646 1.51316,-1.51646c0.83569,0 1.51315,0.67894 1.51315,1.51646l0,2.10848c6.03456,0.69482 10.82309,5.49475 11.5149,11.5429l2.13602,0c0.83752,0 1.51646,0.67747 1.51646,1.51316c0,0.8357 -0.67894,1.51316 -1.51646,1.51316l-2.13602,0c-0.69181,6.04816 -5.48034,10.84809 -11.5149,11.5429l0,1.67521c0,0.83752 -0.67746,1.51646 -1.51315,1.51646c-0.8357,0 -1.51316,-0.67894 -1.51316,-1.51646l0,-1.67521c-6.03456,-0.69481 -10.82308,-5.49474 -11.5149,-11.5429zm16.83936,-7.01426l-5.93698,8.15325l-2.45305,-2.22455c-0.56828,-0.51533 -1.43174,-0.4553 -1.9286,0.1341c-0.49687,0.5894 -0.43898,1.48496 0.12929,2.0003l3.55845,3.22697c0.59726,0.54163 1.51219,0.44379 1.99033,-0.21284l6.82192,-9.36852c0.45493,-0.62476 0.33541,-1.51373 -0.26695,-1.98558c-0.60236,-0.47184 -1.45947,-0.34788 -1.91441,0.27687z" id="Target" fill="#00B3E6" fill-rule="nonzero"/>
   <rect fill="#1A1A1A" stroke-width="null" stroke-opacity="null" fill-opacity="null" x="69.5" y="49.421875" height="1" id="svg_1" stroke="null" width="0"/>
   <text fill="#000000" stroke-width="0" stroke-opacity="null" fill-opacity="null" x="36.5" y="54.495949" id="svg_2" font-size="18" font-family="Helvetica, Arial, sans-serif" text-anchor="start" xml:space="preserve" transform="matrix(1,0,0,1.350000023841858,0,-22.54765778593719) " stroke="null">Reliable</text>
   <path fill="#b557c1" stroke-width="null" d="m439.08755,58.33771c1.12315,-0.01755 -1.06964,-0.08145 -1.45859,-0.11667c-3.25007,-0.09802 -5.94734,-4.11673 -5.5963,-8.10487c0.07108,-3.99081 3.16175,-7.49654 6.3786,-7.09495c0.83734,-0.44237 2.026,1.01754 2.54589,0.32023c1.33535,-2.92963 2.62917,-5.88986 4.01833,-8.78052c1.18329,-0.21005 2.593,-0.37241 3.74409,0.02573c0.53216,1.04254 -0.43539,1.32637 -1.03915,1.16543c-0.67387,0 -1.34775,0 -2.02162,0c-0.48784,1.1069 -0.98843,2.20497 -1.4869,3.30449c2.83132,0 5.66264,0 8.49396,0c0.06305,-0.37457 0.77823,-1.18162 0.14419,-1.0939c-1.15192,-0.18056 -0.43135,-1.83628 0.42169,-1.36526c1.1974,0.05472 2.43712,-0.1468 3.59859,0.15174c0.62044,1.54862 -1.17352,1.21639 -1.94253,1.23281c-0.56921,-0.23106 -0.68717,0.47662 -0.91254,0.96086c-0.91376,1.16407 -0.3458,2.39093 0.26833,3.52571c0.22526,0.51623 0.38574,1.2327 0.9339,0.75035c1.11783,-0.30549 2.33647,-0.31657 3.44878,0.04063c2.32426,0.85879 4.18784,3.53888 4.34386,6.57485c0.14079,1.8648 -0.17975,3.78697 -1.11307,5.29135c-1.08251,1.92832 -2.83929,2.9842 -4.68745,3.19839m-1.44899,0.01882c-1.68491,-0.53774 -3.23836,-1.78877 -4.13898,-3.67747c-0.58938,-0.94405 -0.666,-2.40572 -0.97927,-3.35272c-0.82623,-0.01344 -1.65246,-0.02689 -2.47869,-0.04033c-1.67343,-3.34804 -3.14842,-6.84954 -4.76264,-10.24425c-0.31466,1.16217 -2.10347,2.7433 -1.11577,3.8131c2.4788,2.58672 2.8089,7.63929 0.68874,10.68499c-0.97161,1.35459 -2.31946,2.28806 -3.70499,2.81573m0.10642,-1.84192c2.67372,-0.72412 4.38227,-4.55821 3.45747,-7.75582c-0.28581,-1.04144 -1.0722,-2.70504 -1.76676,-2.72209c-0.74038,1.5898 -1.40644,3.23653 -2.21789,4.77306c-1.78185,0.38979 -0.14935,-2.30846 0.22768,-3.22534c0.40422,-1.11869 1.87213,-2.92834 0.02295,-2.90154c-1.29819,-0.16067 -2.6778,-0.0053 -3.72798,1.06633c-2.25376,1.85484 -2.68032,6.09728 -0.97357,8.65468c1.15543,1.86311 3.15072,2.65521 4.9781,2.11072l0,0zm18.70696,-0.00046c2.28211,-0.66685 3.92434,-3.58391 3.62895,-6.47905c-0.15623,-3.21745 -2.73625,-5.81954 -5.30124,-5.38709c-1.92206,-0.22623 -0.08191,1.96828 0.19282,3.03515c0.26137,1.13282 1.7012,2.52418 0.89735,3.62892c-1.80295,0.09394 -3.65011,-0.06597 -5.44812,0.16013c0.32294,2.96515 2.57925,5.41796 5.01397,5.19106c0.34169,-0.00346 0.68501,-0.03941 1.01627,-0.14912l0,0zm-7.36545,-6.62658c0.21716,-2.32001 1.27456,-4.43037 2.81669,-5.75084c0.09111,-0.5691 -0.84266,-3.19029 -1.18458,-1.36286c-1.05535,2.3857 -2.11629,4.7682 -3.13931,7.17553c0.49009,0.01474 1.03947,0.12117 1.5072,-0.06183zm5.50883,-0.11507c-0.60837,-1.42236 -1.23024,-2.83618 -1.86611,-4.2398c-1.27557,0.83657 -2.11474,2.60699 -2.31311,4.37408c1.39277,-0.03692 2.8089,0.09051 4.18284,-0.09228l-0.00362,-0.042l0,0l0,0zm-5.96647,-5.13043c0.6,-1.37723 1.21138,-2.7472 1.79285,-4.13666c-2.5284,-0.07049 -5.06252,-0.08594 -7.59006,0.0149c1.29825,2.77495 2.47115,5.6574 3.89067,8.33482c0.68638,-1.31304 1.26934,-2.82475 1.90654,-4.21306l0,0z" id="svg_4" stroke="#c700ff"/>
   <text fill="#000000" stroke-width="0" stroke-opacity="null" fill-opacity="null" x="311.5" y="50.088656" id="svg_5" font-size="18" font-family="Helvetica, Arial, sans-serif" text-anchor="start" xml:space="preserve" transform="matrix(1,0,0,1.4151400327682495,0,-15.438008282333612) " stroke="null">Multi-Purpose</text>
   <path fill="#b057c1" stroke-width="null" stroke-opacity="null" d="m186.63041,428.33749c1.05069,-0.01828 -1.00063,-0.08484 -1.36449,-0.12153c-3.04038,-0.1021 -5.56364,-4.28826 -5.23525,-8.44257c0.0665,-4.15709 2.95777,-7.8089 5.96708,-7.39058c0.78332,-0.46081 1.89529,1.05994 2.38164,0.33358c1.2492,-3.0517 2.45955,-6.13527 3.75909,-9.14638c1.10694,-0.2188 2.4257,-0.38792 3.50252,0.0268c0.49784,1.08599 -0.40729,1.38164 -0.9721,1.21399c-0.63039,0 -1.26079,0 -1.89119,0c-0.45636,1.15302 -0.92466,2.29685 -1.39097,3.44218c2.64865,0 5.29731,0 7.94596,0c0.05898,-0.39018 0.72802,-1.23086 0.13489,-1.13948c-1.0776,-0.18808 -0.40353,-1.91279 0.39448,-1.42215c1.12015,0.057 2.2799,-0.15292 3.36643,0.15807c0.5804,1.61314 -1.09782,1.26707 -1.81721,1.28417c-0.53249,-0.24068 -0.64284,0.49648 -0.85367,1.0009c-0.8548,1.21257 -0.32349,2.49055 0.25103,3.67261c0.21073,0.53775 0.36085,1.28407 0.87364,0.78161c1.04572,-0.31821 2.18573,-0.32975 3.22628,0.04233c2.17431,0.89458 3.91766,3.68634 4.06362,6.8488c0.1317,1.94251 -0.16817,3.94477 -1.04127,5.51182c-1.01267,2.00867 -2.65611,3.10855 -4.38503,3.33167m-1.35551,0.0196c-1.57621,-0.56015 -3.02943,-1.86331 -3.87195,-3.8307c-0.55135,-0.98339 -0.62303,-2.50597 -0.91609,-3.49242c-0.77292,-0.014 -1.54585,-0.02801 -2.31877,-0.04201c-1.56547,-3.48754 -2.94529,-7.13493 -4.45537,-10.67109c-0.29436,1.21059 -1.96777,2.85761 -1.04379,3.97198c2.31888,2.6945 2.62769,7.95759 0.64431,11.1302c-0.90894,1.41103 -2.16981,2.38339 -3.46597,2.93305m0.09957,-1.91867c2.50121,-0.75429 4.09953,-4.74813 3.2344,-8.07898c-0.26737,-1.08483 -1.00303,-2.81775 -1.65278,-2.83551c-0.69262,1.65605 -1.3157,3.37138 -2.07479,4.97193c-1.6669,0.40605 -0.13972,-2.40464 0.21298,-3.35973c0.37815,-1.16529 1.75135,-3.05034 0.02147,-3.02243c-1.21443,-0.16736 -2.50504,-0.00552 -3.48747,1.11076c-2.10834,1.93213 -2.50739,6.35133 -0.91075,9.0153c1.08088,1.94074 2.94744,2.76584 4.65694,2.19866l0,0zm17.50005,-0.00048c2.13488,-0.69463 3.67116,-3.73324 3.39483,-6.74901c-0.14616,-3.3515 -2.55973,-6.06202 -4.95924,-5.61155c-1.79805,-0.23566 -0.07662,2.0503 0.18039,3.16161c0.24451,1.18003 1.59145,2.62936 0.83945,3.78013c-1.68663,0.09785 -3.41461,-0.06872 -5.09662,0.1668c0.3021,3.08869 2.41285,5.64371 4.69049,5.40735c0.31964,-0.0036 0.64082,-0.04105 0.9507,-0.15533l0,0zm-6.89026,-6.90269c0.20315,-2.41668 1.19233,-4.61497 2.63496,-5.99046c0.08524,-0.59281 -0.78829,-3.32321 -1.10815,-1.41964c-0.98726,2.4851 -1.97975,4.96687 -2.93677,7.47451c0.45847,0.01536 0.9724,0.12622 1.40996,-0.06441zm5.15342,-0.11986c-0.56911,-1.48162 -1.15086,-2.95435 -1.74571,-4.41646c-1.19328,0.87143 -1.97831,2.71561 -2.16388,4.55634c1.30291,-0.03847 2.62768,0.09427 3.91298,-0.09613l-0.00339,-0.04375l0,0l0,0zm-5.58154,-5.3442c0.56129,-1.43461 1.13323,-2.86167 1.67719,-4.30902c-2.36528,-0.07343 -4.73591,-0.08952 -7.10039,0.01552c1.21451,2.89058 2.31173,5.89312 3.63967,8.6821c0.6421,-1.36775 1.18744,-2.94244 1.78353,-4.38859l0,-0.00001z" id="svg_19" stroke="null"/>
   <path fill="#C48157" stroke-width="null" stroke-opacity="null" d="m344.63041,431.33725c1.05069,-0.01901 -1.00063,-0.08823 -1.36449,-0.12639c-3.04039,-0.10618 -5.56364,-4.45978 -5.23526,-8.78027c0.06651,-4.32337 2.95777,-8.12125 5.96709,-7.6862c0.78332,-0.47924 1.89529,1.10234 2.38164,0.34692c1.2492,-3.17376 2.45954,-6.38068 3.75908,-9.51223c1.10695,-0.22755 2.42571,-0.40344 3.50253,0.02787c0.49784,1.12943 -0.40729,1.43691 -0.9721,1.26255c-0.6304,0 -1.26079,0 -1.89119,0c-0.45636,1.19914 -0.92466,2.38872 -1.39098,3.57986c2.64866,0 5.29732,0 7.94597,0c0.05898,-0.40578 0.72802,-1.28008 0.13489,-1.18505c-1.0776,-0.1956 -0.40353,-1.98931 0.39448,-1.47904c1.12014,0.05928 2.2799,-0.15903 3.36643,0.1644c0.5804,1.67766 -1.09782,1.31775 -1.81721,1.33553c-0.53249,-0.25031 -0.64284,0.51634 -0.85367,1.04094c-0.8548,1.26107 -0.32349,2.59017 0.25102,3.81951c0.21073,0.55926 0.36085,1.33544 0.87365,0.81288c1.04571,-0.33094 2.18573,-0.34295 3.22627,0.04402c2.17432,0.93036 3.91766,3.83379 4.06363,7.12275c0.1317,2.02021 -0.16817,4.10256 -1.04127,5.73229c-1.01267,2.08902 -2.65611,3.23289 -4.38503,3.46494m-1.35551,0.02039c-1.57621,-0.58256 -3.02944,-1.93784 -3.87195,-3.98393c-0.55136,-1.02273 -0.62304,-2.60621 -0.9161,-3.63212c-0.77292,-0.01456 -1.54584,-0.02913 -2.31877,-0.04369c-1.56547,-3.62704 -2.94529,-7.42033 -4.45537,-11.09794c-0.29436,1.25902 -1.96777,2.97192 -1.04378,4.13086c2.31887,2.80228 2.62768,8.2759 0.6443,11.57541c-0.90893,1.46747 -2.16981,2.47873 -3.46596,3.05037m0.09956,-1.99541c2.50121,-0.78446 4.09954,-4.93806 3.2344,-8.40214c-0.26737,-1.12823 -1.00303,-2.93046 -1.65278,-2.94893c-0.69262,1.72229 -1.3157,3.50624 -2.07479,5.17081c-1.66689,0.42228 -0.13972,-2.50083 0.21298,-3.49412c0.37815,-1.2119 1.75135,-3.17236 0.02147,-3.14333c-1.21442,-0.17405 -2.50504,-0.00574 -3.48747,1.15519c-2.10834,2.00942 -2.50739,6.60539 -0.91075,9.37591c1.08088,2.01837 2.94745,2.87648 4.65694,2.28661l0,0zm17.50005,-0.0005c2.13488,-0.72242 3.67116,-3.88257 3.39483,-7.01897c-0.14615,-3.48556 -2.55972,-6.3045 -4.95923,-5.83601c-1.79805,-0.24509 -0.07663,2.13231 0.18039,3.28808c0.24451,1.22722 1.59144,2.73453 0.83945,3.93133c-1.68663,0.10176 -3.41462,-0.07147 -5.09663,0.17347c0.30211,3.21224 2.41285,5.86946 4.6905,5.62365c0.31963,-0.00375 0.64081,-0.0427 0.9507,-0.16155l-0.00001,0zm-6.89026,-7.17879c0.20315,-2.51335 1.19233,-4.79957 2.63497,-6.23009c0.08523,-0.61652 -0.7883,-3.45613 -1.10815,-1.47642c-0.98727,2.58451 -1.97976,5.16555 -2.93677,7.77349c0.45846,0.01597 0.9724,0.13127 1.40995,-0.06698zm5.15343,-0.12466c-0.56912,-1.54089 -1.15087,-3.07253 -1.74571,-4.59312c-1.19329,0.90629 -1.97832,2.82424 -2.16388,4.73859c1.30291,-0.04 2.62768,0.09805 3.91297,-0.09997l-0.00338,-0.0455l0,0l0,0zm-5.58154,-5.55797c0.56129,-1.492 1.13322,-2.97613 1.67718,-4.48138c-2.36527,-0.07637 -4.73591,-0.0931 -7.10038,0.01614c1.2145,3.0062 2.31173,6.12885 3.63966,9.02939c0.6421,-1.42246 1.18744,-3.06014 1.78353,-4.56414l0,-0.00001l0.00001,0z" id="svg_20" stroke="null"/>
   <path fill="#C48157" stroke-width="null" stroke-opacity="null" d="m544.17327,428.33792c0.97822,-0.01682 -0.93163,-0.07805 -1.27039,-0.11181c-2.83071,-0.09393 -5.17994,-3.94519 -4.8742,-7.76716c0.06191,-3.82452 2.75378,-7.18418 5.55555,-6.79933c0.72931,-0.42394 1.76459,0.97515 2.21739,0.30689c1.16305,-2.80756 2.28993,-5.64445 3.49984,-8.41466c1.03061,-0.2013 2.25842,-0.35689 3.26098,0.02465c0.4635,0.99911 -0.37921,1.27111 -0.90507,1.11687c-0.58691,0 -1.17383,0 -1.76076,0c-0.42489,1.06078 -0.86089,2.11311 -1.29504,3.1668c2.46598,0 4.93198,0 7.39797,0c0.05491,-0.35896 0.6778,-1.13238 0.12558,-1.04831c-1.00328,-0.17304 -0.3757,-1.75978 0.36727,-1.30838c1.0429,0.05244 2.12267,-0.14068 3.13426,0.14542c0.54038,1.48409 -1.0221,1.16571 -1.69188,1.18144c-0.49576,-0.22144 -0.5985,0.45677 -0.79479,0.92083c-0.79585,1.11556 -0.30118,2.29131 0.23371,3.3788c0.1962,0.49473 0.33596,1.18134 0.81339,0.71908c0.9736,-0.29275 2.03499,-0.30337 3.00378,0.03895c2.02436,0.823 3.64747,3.39142 3.78337,6.30089c0.12262,1.78711 -0.15657,3.62919 -0.96946,5.07087c-0.94283,1.84798 -2.47293,2.85987 -4.08261,3.06513m-1.26203,0.01804c-1.4675,-0.51533 -2.8205,-1.71424 -3.60492,-3.52425c-0.51333,-0.90471 -0.58006,-2.30548 -0.85291,-3.21302c-0.71962,-0.01288 -1.43924,-0.02576 -2.15886,-0.03864c-1.45751,-3.20854 -2.74217,-6.56415 -4.1481,-9.81741c-0.27406,1.11374 -1.83206,2.62899 -0.9718,3.65422c2.15895,2.47894 2.44646,7.32099 0.59987,10.23978c-0.84625,1.29815 -2.02017,2.19273 -3.22693,2.69841m0.09269,-1.76518c2.32872,-0.69395 3.81682,-4.36828 3.01134,-7.43265c-0.24893,-0.99805 -0.93385,-2.59233 -1.53879,-2.60867c-0.64485,1.52355 -1.22497,3.10166 -1.9317,4.57417c-1.55194,0.37356 -0.13009,-2.21227 0.19829,-3.09095c0.35207,-1.07206 1.63057,-2.80631 0.01999,-2.78063c-1.13067,-0.15398 -2.33228,-0.00508 -3.24696,1.02189c-1.96293,1.77756 -2.33446,5.84323 -0.84793,8.29407c1.00633,1.78549 2.74417,2.54458 4.33576,2.02277l0,0zm16.29315,-0.00044c1.98765,-0.63906 3.41798,-3.43458 3.16071,-6.20908c-0.13607,-3.08339 -2.38319,-5.57707 -4.61722,-5.16263c-1.67404,-0.21681 -0.07134,1.88627 0.16795,2.90869c0.22765,1.08561 1.48169,2.41901 0.78156,3.4777c-1.57031,0.09003 -3.17913,-0.0632 -4.74514,0.15346c0.28127,2.8416 2.24645,5.19222 4.36701,4.97477c0.2976,-0.00332 0.59663,-0.03777 0.88514,-0.14291l-0.00001,0zm-6.41507,-6.35047c0.18914,-2.22335 1.1101,-4.24577 2.45325,-5.51122c0.07935,-0.54539 -0.73393,-3.05736 -1.03173,-1.30607c-0.91918,2.2863 -1.84322,4.56952 -2.73423,6.87654c0.42684,0.01413 0.90534,0.11613 1.31271,-0.05925zm4.79802,-0.11027c-0.52986,-1.3631 -1.07149,-2.71801 -1.62532,-4.06315c-1.11098,0.80172 -1.84187,2.49837 -2.01464,4.19183c1.21305,-0.03538 2.44646,0.08674 3.64312,-0.08843l-0.00316,-0.04025l0,0l0,0zm-5.19661,-4.91666c0.52259,-1.31985 1.05508,-2.63274 1.56152,-3.96431c-2.20215,-0.06755 -4.40929,-0.08235 -6.6107,0.01428c1.13074,2.65933 2.1523,5.42167 3.38865,7.98754c0.59782,-1.25833 1.10555,-2.70705 1.66053,-4.03751l0,0z" id="svg_21" stroke="null"/>
   <path fill="#C48157" stroke="null" stroke-width="null" stroke-opacity="null" opacity="0.5" d="m439.5,53.42188" id="svg_22"/>
   <path fill="#C48157" stroke="null" stroke-width="null" stroke-opacity="null" opacity="0.5" d="m453.5,56.42188c-1,0 -7,-11 -7,-11" id="svg_23"/>
   <path fill="#b057c1" stroke-width="null" stroke-opacity="0" d="m186.63041,428.33748c1.05069,-0.01827 -1.00063,-0.08484 -1.36449,-0.12152c-3.04038,-0.1021 -5.56364,-4.28826 -5.23525,-8.44257c0.0665,-4.15709 2.95777,-7.8089 5.96708,-7.39058c0.78332,-0.4608 1.89529,1.05994 2.38164,0.33358c1.2492,-3.0517 2.45954,-6.13527 3.75908,-9.14638c1.10695,-0.2188 2.42571,-0.38792 3.50253,0.0268c0.49784,1.08599 -0.40729,1.38164 -0.9721,1.21399c-0.6304,0 -1.26079,0 -1.89119,0c-0.45636,1.15302 -0.92466,2.29685 -1.39097,3.44218c2.64865,0 5.29731,0 7.94596,0c0.05898,-0.39018 0.72802,-1.23086 0.13489,-1.13947c-1.0776,-0.18809 -0.40353,-1.9128 0.39448,-1.42216c1.12014,0.057 2.2799,-0.15291 3.36643,0.15807c0.5804,1.61314 -1.09782,1.26707 -1.81721,1.28417c-0.53249,-0.24068 -0.64284,0.49648 -0.85367,1.0009c-0.8548,1.21257 -0.32349,2.49055 0.25103,3.67261c0.21073,0.53775 0.36085,1.28407 0.87364,0.78161c1.04572,-0.31821 2.18573,-0.32975 3.22628,0.04233c2.17431,0.89458 3.91766,3.68634 4.06362,6.8488c0.1317,1.94251 -0.16817,3.94477 -1.04127,5.51182c-1.01267,2.00867 -2.65611,3.10855 -4.38503,3.33167m-1.35551,0.0196c-1.57621,-0.56015 -3.02943,-1.86331 -3.87195,-3.8307c-0.55135,-0.98339 -0.62303,-2.50597 -0.91609,-3.49242c-0.77293,-0.014 -1.54585,-0.02801 -2.31878,-0.04201c-1.56547,-3.48754 -2.94529,-7.13493 -4.45536,-10.67109c-0.29436,1.21059 -1.96777,2.85761 -1.04379,3.97198c2.31887,2.6945 2.62768,7.95759 0.64431,11.1302c-0.90894,1.41103 -2.16982,2.38339 -3.46597,2.93305m0.09956,-1.91867c2.50122,-0.75429 4.09954,-4.74813 3.23441,-8.07898c-0.26738,-1.08483 -1.00303,-2.81775 -1.65278,-2.83551c-0.69262,1.65604 -1.31571,3.37139 -2.07479,4.97193c-1.6669,0.40605 -0.13972,-2.40464 0.21297,-3.35973c0.37816,-1.16529 1.75135,-3.05034 0.02148,-3.02243c-1.21443,-0.16736 -2.50504,-0.00552 -3.48747,1.11076c-2.10835,1.93213 -2.50739,6.35133 -0.91075,9.0153c1.08088,1.94074 2.94744,2.76584 4.65693,2.19866l0,0zm17.50005,-0.00048c2.13488,-0.69463 3.67116,-3.73324 3.39483,-6.74901c-0.14615,-3.3515 -2.55972,-6.06202 -4.95923,-5.61155c-1.79805,-0.23566 -0.07662,2.0503 0.18039,3.16162c0.24451,1.18002 1.59145,2.62935 0.83945,3.78012c-1.68663,0.09785 -3.41462,-0.06871 -5.09662,0.1668c0.3021,3.08869 2.41285,5.64371 4.69049,5.40735c0.31964,-0.0036 0.64082,-0.04105 0.9507,-0.15533l-0.00001,0zm-6.89026,-6.90269c0.20315,-2.41668 1.19234,-4.61497 2.63497,-5.99046c0.08523,-0.59281 -0.7883,-3.32321 -1.10815,-1.41964c-0.98727,2.4851 -1.97975,4.96687 -2.93677,7.47451c0.45846,0.01536 0.9724,0.12622 1.40995,-0.06441zm5.15343,-0.11986c-0.56911,-1.48162 -1.15086,-2.95435 -1.74571,-4.41646c-1.19328,0.87143 -1.97831,2.71561 -2.16388,4.55634c1.30291,-0.03847 2.62768,0.09427 3.91298,-0.09613l-0.00339,-0.04375l0,0l0,0zm-5.58154,-5.3442c0.56129,-1.43461 1.13323,-2.86167 1.67719,-4.30902c-2.36528,-0.07343 -4.73591,-0.08951 -7.10039,0.01552c1.2145,2.89058 2.31173,5.89313 3.63967,8.6821c0.6421,-1.36775 1.18744,-2.94244 1.78353,-4.38859l0,-0.00001z" id="svg_24" stroke="#c700ff"/>
   <path fill="#a857c1" stroke-width="null" stroke-opacity="null" d="m344.63041,431.33725c1.05069,-0.01901 -1.00063,-0.08823 -1.36449,-0.12639c-3.04039,-0.10618 -5.56364,-4.45978 -5.23525,-8.78027c0.0665,-4.32337 2.95776,-8.12125 5.96708,-7.6862c0.78332,-0.47924 1.89529,1.10234 2.38164,0.34692c1.2492,-3.17376 2.45954,-6.38068 3.75908,-9.51223c1.10695,-0.22755 2.42571,-0.40344 3.50253,0.02787c0.49784,1.12943 -0.40729,1.43691 -0.9721,1.26255c-0.6304,0 -1.26079,0 -1.89119,0c-0.45636,1.19914 -0.92466,2.38872 -1.39097,3.57986c2.64865,0 5.29731,0 7.94596,0c0.05898,-0.40578 0.72802,-1.28008 0.13489,-1.18505c-1.0776,-0.1956 -0.40353,-1.98931 0.39448,-1.47904c1.12015,0.05928 2.2799,-0.15903 3.36643,0.1644c0.5804,1.67766 -1.09782,1.31775 -1.81721,1.33553c-0.53249,-0.25031 -0.64284,0.51635 -0.85367,1.04094c-0.8548,1.26107 -0.32349,2.59017 0.25103,3.81951c0.21073,0.55926 0.36085,1.33544 0.87364,0.81288c1.04572,-0.33094 2.18573,-0.34295 3.22628,0.04402c2.17431,0.93036 3.91766,3.83379 4.06362,7.12275c0.1317,2.02021 -0.16817,4.10256 -1.04127,5.73229c-1.01267,2.08902 -2.65611,3.23289 -4.38503,3.46494m-1.35551,0.02039c-1.57621,-0.58256 -3.02943,-1.93784 -3.87195,-3.98393c-0.55135,-1.02273 -0.62303,-2.60621 -0.91609,-3.63212c-0.77293,-0.01456 -1.54585,-0.02913 -2.31878,-0.04369c-1.56547,-3.62704 -2.94529,-7.42033 -4.45537,-11.09794c-0.29435,1.25902 -1.96776,2.97192 -1.04378,4.13086c2.31887,2.80228 2.62768,8.2759 0.64431,11.57541c-0.90894,1.46747 -2.16982,2.47873 -3.46597,3.05037m0.09956,-1.99541c2.50122,-0.78446 4.09954,-4.93806 3.23441,-8.40214c-0.26738,-1.12823 -1.00303,-2.93046 -1.65278,-2.94893c-0.69262,1.72229 -1.31571,3.50624 -2.07479,5.17081c-1.6669,0.42228 -0.13973,-2.50083 0.21297,-3.49412c0.37815,-1.2119 1.75135,-3.17236 0.02148,-3.14333c-1.21443,-0.17405 -2.50505,-0.00574 -3.48748,1.15519c-2.10834,2.00942 -2.50739,6.60539 -0.91074,9.37591c1.08088,2.01837 2.94744,2.87648 4.65693,2.28661l0,0zm17.50005,-0.0005c2.13489,-0.72242 3.67117,-3.88257 3.39484,-7.01897c-0.14616,-3.48556 -2.55973,-6.3045 -4.95924,-5.83602c-1.79805,-0.24508 -0.07662,2.13232 0.18039,3.28809c0.24451,1.22722 1.59145,2.73453 0.83945,3.93133c-1.68663,0.10176 -3.41462,-0.07147 -5.09662,0.17347c0.3021,3.21224 2.41285,5.86946 4.69049,5.62365c0.31964,-0.00375 0.64082,-0.0427 0.9507,-0.16155l-0.00001,0zm-6.89026,-7.17879c0.20315,-2.51335 1.19234,-4.79958 2.63497,-6.23009c0.08524,-0.61652 -0.78829,-3.45614 -1.10815,-1.47642c-0.98727,2.5845 -1.97975,5.16555 -2.93677,7.77349c0.45846,0.01597 0.9724,0.13127 1.40995,-0.06698zm5.15343,-0.12466c-0.56911,-1.54089 -1.15086,-3.07253 -1.74571,-4.59312c-1.19328,0.90629 -1.97831,2.82424 -2.16388,4.73859c1.30291,-0.04 2.62768,0.09805 3.91298,-0.09997l-0.00339,-0.0455l0,0l0,0zm-5.58154,-5.55797c0.56129,-1.492 1.13323,-2.97613 1.67719,-4.48138c-2.36528,-0.07637 -4.73591,-0.0931 -7.10039,0.01614c1.2145,3.0062 2.31173,6.12885 3.63967,9.02939c0.6421,-1.42246 1.18744,-3.06014 1.78353,-4.56414l0,-0.00001z" id="svg_25" stroke="null"/>
   <path fill="#af4cbf" stroke-width="null" stroke-opacity="0" d="m544.17327,428.33792c0.97822,-0.01682 -0.93163,-0.07805 -1.27039,-0.11181c-2.83071,-0.09393 -5.17994,-3.94519 -4.8742,-7.76716c0.06191,-3.82452 2.75378,-7.18418 5.55555,-6.79933c0.72931,-0.42394 1.76459,0.97514 2.21739,0.30689c1.16305,-2.80756 2.28992,-5.64445 3.49984,-8.41466c1.03061,-0.2013 2.25842,-0.35689 3.26098,0.02465c0.4635,0.99911 -0.37921,1.27111 -0.90507,1.11687c-0.58692,0 -1.17383,0 -1.76076,0c-0.42489,1.06078 -0.86089,2.1131 -1.29504,3.1668c2.46598,0 4.93198,0 7.39797,0c0.05491,-0.35896 0.6778,-1.13238 0.12558,-1.04831c-1.00328,-0.17304 -0.3757,-1.75978 0.36727,-1.30838c1.0429,0.05244 2.12267,-0.14068 3.13426,0.14542c0.54038,1.48409 -1.0221,1.16571 -1.69188,1.18144c-0.49576,-0.22144 -0.5985,0.45677 -0.79479,0.92083c-0.79585,1.11556 -0.30118,2.29131 0.23371,3.37879c0.1962,0.49473 0.33596,1.18135 0.81339,0.71909c0.9736,-0.29276 2.03499,-0.30338 3.00378,0.03895c2.02436,0.823 3.64747,3.39142 3.78337,6.30089c0.12262,1.78711 -0.15657,3.62918 -0.96946,5.07087c-0.94283,1.84798 -2.47293,2.85986 -4.08261,3.06513m-1.26203,0.01804c-1.4675,-0.51533 -2.8205,-1.71424 -3.60491,-3.52425c-0.51334,-0.90471 -0.58007,-2.30548 -0.85292,-3.21302c-0.71962,-0.01288 -1.43924,-0.02577 -2.15886,-0.03865c-1.4575,-3.20854 -2.74216,-6.56414 -4.1481,-9.81741c-0.27406,1.11375 -1.83206,2.629 -0.9718,3.65423c2.15895,2.47894 2.44646,7.32099 0.59987,10.23978c-0.84625,1.29815 -2.02017,2.19273 -3.22693,2.69841m0.09269,-1.76518c2.32872,-0.69395 3.81682,-4.36828 3.01134,-7.43265c-0.24893,-0.99805 -0.93385,-2.59233 -1.53879,-2.60867c-0.64485,1.52355 -1.22496,3.10166 -1.9317,4.57417c-1.55194,0.37355 -0.13009,-2.21227 0.19829,-3.09095c0.35207,-1.07206 1.63057,-2.80631 0.01999,-2.78064c-1.13067,-0.15397 -2.33228,-0.00507 -3.24696,1.0219c-1.96293,1.77756 -2.33446,5.84323 -0.84793,8.29407c1.00633,1.78549 2.74417,2.54458 4.33576,2.02277l0,0zm16.29315,-0.00044c1.98765,-0.63907 3.41798,-3.43458 3.16071,-6.20908c-0.13607,-3.08339 -2.38319,-5.57707 -4.61722,-5.16263c-1.67404,-0.21681 -0.07134,1.88627 0.16795,2.90869c0.22765,1.08561 1.48169,2.419 0.78156,3.4777c-1.57031,0.09003 -3.17913,-0.06321 -4.74514,0.15346c0.28127,2.8416 2.24645,5.19222 4.36701,4.97477c0.2976,-0.00332 0.59663,-0.03777 0.88514,-0.14291l-0.00001,0zm-6.41507,-6.35047c0.18914,-2.22335 1.11011,-4.24577 2.45325,-5.51122c0.07935,-0.54539 -0.73393,-3.05736 -1.03173,-1.30608c-0.91918,2.2863 -1.84322,4.56953 -2.73423,6.87655c0.42684,0.01413 0.90534,0.11613 1.31271,-0.05925zm4.79802,-0.11027c-0.52986,-1.3631 -1.07149,-2.71801 -1.62531,-4.06315c-1.11099,0.80172 -1.84188,2.49837 -2.01465,4.19183c1.21305,-0.03539 2.44646,0.08674 3.64312,-0.08843l-0.00316,-0.04025l0,0l0,0zm-5.1966,-4.91666c0.52258,-1.31985 1.05507,-2.63274 1.56151,-3.96431c-2.20215,-0.06755 -4.40929,-0.08236 -6.6107,0.01428c1.13074,2.65933 2.1523,5.42167 3.38865,7.98754c0.59782,-1.25833 1.10555,-2.70705 1.66054,-4.03751l0,0z" id="svg_26" stroke="#c700ff"/>
   <path fill="#af4cbf" stroke-width="null" stroke-opacity="0" d="m544.17327,428.33792c0.97822,-0.01682 -0.93163,-0.07805 -1.27039,-0.11181c-2.83071,-0.09393 -5.17994,-3.94519 -4.8742,-7.76716c0.06191,-3.82452 2.75378,-7.18418 5.55555,-6.79933c0.72931,-0.42394 1.76459,0.97514 2.21739,0.30689c1.16305,-2.80756 2.28992,-5.64445 3.49984,-8.41466c1.03061,-0.2013 2.25842,-0.35689 3.26098,0.02465c0.4635,0.99911 -0.37921,1.27111 -0.90507,1.11687c-0.58692,0 -1.17383,0 -1.76076,0c-0.42489,1.06078 -0.86089,2.1131 -1.29504,3.1668c2.46598,0 4.93198,0 7.39797,0c0.05491,-0.35896 0.6778,-1.13238 0.12558,-1.04831c-1.00328,-0.17304 -0.3757,-1.75978 0.36727,-1.30838c1.0429,0.05244 2.12267,-0.14068 3.13426,0.14542c0.54038,1.48409 -1.0221,1.16571 -1.69188,1.18144c-0.49576,-0.22144 -0.5985,0.45677 -0.79479,0.92083c-0.79585,1.11556 -0.30118,2.29131 0.23371,3.37879c0.1962,0.49473 0.33596,1.18135 0.81339,0.71909c0.9736,-0.29276 2.03499,-0.30338 3.00378,0.03895c2.02436,0.823 3.64747,3.39142 3.78337,6.30089c0.12262,1.78711 -0.15657,3.62918 -0.96946,5.07087c-0.94283,1.84798 -2.47293,2.85986 -4.08261,3.06513m-1.26203,0.01804c-1.4675,-0.51533 -2.8205,-1.71424 -3.60491,-3.52425c-0.51334,-0.90471 -0.58007,-2.30548 -0.85292,-3.21302c-0.71962,-0.01288 -1.43924,-0.02577 -2.15886,-0.03865c-1.4575,-3.20854 -2.74216,-6.56414 -4.1481,-9.81741c-0.27406,1.11375 -1.83206,2.629 -0.9718,3.65423c2.15895,2.47894 2.44646,7.32099 0.59987,10.23978c-0.84625,1.29815 -2.02017,2.19273 -3.22693,2.69841m0.09269,-1.76518c2.32872,-0.69395 3.81682,-4.36828 3.01134,-7.43265c-0.24893,-0.99805 -0.93385,-2.59233 -1.53879,-2.60867c-0.64485,1.52355 -1.22496,3.10166 -1.9317,4.57417c-1.55194,0.37355 -0.13009,-2.21227 0.19829,-3.09095c0.35207,-1.07206 1.63057,-2.80631 0.01999,-2.78064c-1.13067,-0.15397 -2.33228,-0.00507 -3.24696,1.0219c-1.96293,1.77756 -2.33446,5.84323 -0.84793,8.29407c1.00633,1.78549 2.74417,2.54458 4.33576,2.02277l0,0zm16.29315,-0.00044c1.98765,-0.63907 3.41798,-3.43458 3.16071,-6.20908c-0.13607,-3.08339 -2.38319,-5.57707 -4.61722,-5.16263c-1.67404,-0.21681 -0.07134,1.88627 0.16795,2.90869c0.22765,1.08561 1.48169,2.419 0.78156,3.4777c-1.57031,0.09003 -3.17913,-0.06321 -4.74514,0.15346c0.28127,2.8416 2.24645,5.19222 4.36701,4.97477c0.2976,-0.00332 0.59663,-0.03777 0.88514,-0.14291l-0.00001,0zm-6.41507,-6.35047c0.18914,-2.22335 1.11011,-4.24577 2.45325,-5.51122c0.07935,-0.54539 -0.73393,-3.05736 -1.03173,-1.30608c-0.91918,2.2863 -1.84322,4.56953 -2.73423,6.87655c0.42684,0.01413 0.90534,0.11613 1.31271,-0.05925zm4.79802,-0.11027c-0.52986,-1.3631 -1.07149,-2.71801 -1.62531,-4.06315c-1.11099,0.80172 -1.84188,2.49837 -2.01465,4.19183c1.21305,-0.03539 2.44646,0.08674 3.64312,-0.08843l-0.00316,-0.04025l0,0l0,0zm-5.1966,-4.91666c0.52258,-1.31985 1.05507,-2.63274 1.56151,-3.96431c-2.20215,-0.06755 -4.40929,-0.08236 -6.6107,0.01428c1.13074,2.65933 2.1523,5.42167 3.38865,7.98754c0.59782,-1.25833 1.10555,-2.70705 1.66054,-4.03751l0,0z" id="svg_27" stroke="#c700ff"/>
   <path fill="#a857c1" stroke-width="null" stroke-opacity="null" d="m344.63041,431.33725c1.05069,-0.01901 -1.00063,-0.08823 -1.36449,-0.12639c-3.04039,-0.10618 -5.56364,-4.45978 -5.23525,-8.78027c0.0665,-4.32337 2.95776,-8.12125 5.96708,-7.6862c0.78332,-0.47924 1.89529,1.10234 2.38164,0.34692c1.2492,-3.17376 2.45954,-6.38068 3.75908,-9.51223c1.10695,-0.22755 2.42571,-0.40344 3.50253,0.02787c0.49784,1.12943 -0.40729,1.43691 -0.9721,1.26255c-0.6304,0 -1.26079,0 -1.89119,0c-0.45636,1.19914 -0.92466,2.38872 -1.39097,3.57986c2.64865,0 5.29731,0 7.94596,0c0.05898,-0.40578 0.72802,-1.28008 0.13489,-1.18505c-1.0776,-0.1956 -0.40353,-1.98931 0.39448,-1.47904c1.12015,0.05928 2.2799,-0.15903 3.36643,0.1644c0.5804,1.67766 -1.09782,1.31775 -1.81721,1.33553c-0.53249,-0.25031 -0.64284,0.51635 -0.85367,1.04094c-0.8548,1.26107 -0.32349,2.59017 0.25103,3.81951c0.21073,0.55926 0.36085,1.33544 0.87364,0.81288c1.04572,-0.33094 2.18573,-0.34295 3.22628,0.04402c2.17431,0.93036 3.91766,3.83379 4.06362,7.12275c0.1317,2.02021 -0.16817,4.10256 -1.04127,5.73229c-1.01267,2.08902 -2.65611,3.23289 -4.38503,3.46494m-1.35551,0.02039c-1.57621,-0.58256 -3.02943,-1.93784 -3.87195,-3.98393c-0.55135,-1.02273 -0.62303,-2.60621 -0.91609,-3.63212c-0.77293,-0.01456 -1.54585,-0.02913 -2.31878,-0.04369c-1.56547,-3.62704 -2.94529,-7.42033 -4.45537,-11.09794c-0.29435,1.25902 -1.96776,2.97192 -1.04378,4.13086c2.31887,2.80228 2.62768,8.2759 0.64431,11.57541c-0.90894,1.46747 -2.16982,2.47873 -3.46597,3.05037m0.09956,-1.99541c2.50122,-0.78446 4.09954,-4.93806 3.23441,-8.40214c-0.26738,-1.12823 -1.00303,-2.93046 -1.65278,-2.94893c-0.69262,1.72229 -1.31571,3.50624 -2.07479,5.17081c-1.6669,0.42228 -0.13973,-2.50083 0.21297,-3.49412c0.37815,-1.2119 1.75135,-3.17236 0.02148,-3.14333c-1.21443,-0.17405 -2.50505,-0.00574 -3.48748,1.15519c-2.10834,2.00942 -2.50739,6.60539 -0.91074,9.37591c1.08088,2.01837 2.94744,2.87648 4.65693,2.28661l0,0zm17.50005,-0.0005c2.13489,-0.72242 3.67117,-3.88257 3.39484,-7.01897c-0.14616,-3.48556 -2.55973,-6.3045 -4.95924,-5.83602c-1.79805,-0.24508 -0.07662,2.13232 0.18039,3.28809c0.24451,1.22722 1.59145,2.73453 0.83945,3.93133c-1.68663,0.10176 -3.41462,-0.07147 -5.09662,0.17347c0.3021,3.21224 2.41285,5.86946 4.69049,5.62365c0.31964,-0.00375 0.64082,-0.0427 0.9507,-0.16155l-0.00001,0zm-6.89026,-7.17879c0.20315,-2.51335 1.19234,-4.79958 2.63497,-6.23009c0.08524,-0.61652 -0.78829,-3.45614 -1.10815,-1.47642c-0.98727,2.5845 -1.97975,5.16555 -2.93677,7.77349c0.45846,0.01597 0.9724,0.13127 1.40995,-0.06698zm5.15343,-0.12466c-0.56911,-1.54089 -1.15086,-3.07253 -1.74571,-4.59312c-1.19328,0.90629 -1.97831,2.82424 -2.16388,4.73859c1.30291,-0.04 2.62768,0.09805 3.91298,-0.09997l-0.00339,-0.0455l0,0l0,0zm-5.58154,-5.55797c0.56129,-1.492 1.13323,-2.97613 1.67719,-4.48138c-2.36528,-0.07637 -4.73591,-0.0931 -7.10039,0.01614c1.2145,3.0062 2.31173,6.12885 3.63967,9.02939c0.6421,-1.42246 1.18744,-3.06014 1.78353,-4.56414l0,-0.00001z" id="svg_28" stroke="null"/>
   <path fill="#b057c1" stroke-width="null" stroke-opacity="0" d="m186.63041,428.33748c1.05069,-0.01827 -1.00063,-0.08484 -1.36449,-0.12152c-3.04038,-0.1021 -5.56364,-4.28826 -5.23525,-8.44257c0.0665,-4.15709 2.95777,-7.8089 5.96708,-7.39058c0.78332,-0.4608 1.89529,1.05994 2.38164,0.33358c1.2492,-3.0517 2.45954,-6.13527 3.75908,-9.14638c1.10695,-0.2188 2.42571,-0.38792 3.50253,0.0268c0.49784,1.08599 -0.40729,1.38164 -0.9721,1.21399c-0.6304,0 -1.26079,0 -1.89119,0c-0.45636,1.15302 -0.92466,2.29685 -1.39097,3.44218c2.64865,0 5.29731,0 7.94596,0c0.05898,-0.39018 0.72802,-1.23086 0.13489,-1.13947c-1.0776,-0.18809 -0.40353,-1.9128 0.39448,-1.42216c1.12014,0.057 2.2799,-0.15291 3.36643,0.15807c0.5804,1.61314 -1.09782,1.26707 -1.81721,1.28417c-0.53249,-0.24068 -0.64284,0.49648 -0.85367,1.0009c-0.8548,1.21257 -0.32349,2.49055 0.25103,3.67261c0.21073,0.53775 0.36085,1.28407 0.87364,0.78161c1.04572,-0.31821 2.18573,-0.32975 3.22628,0.04233c2.17431,0.89458 3.91766,3.68634 4.06362,6.8488c0.1317,1.94251 -0.16817,3.94477 -1.04127,5.51182c-1.01267,2.00867 -2.65611,3.10855 -4.38503,3.33167m-1.35551,0.0196c-1.57621,-0.56015 -3.02943,-1.86331 -3.87195,-3.8307c-0.55135,-0.98339 -0.62303,-2.50597 -0.91609,-3.49242c-0.77293,-0.014 -1.54585,-0.02801 -2.31878,-0.04201c-1.56547,-3.48754 -2.94529,-7.13493 -4.45536,-10.67109c-0.29436,1.21059 -1.96777,2.85761 -1.04379,3.97198c2.31887,2.6945 2.62768,7.95759 0.64431,11.1302c-0.90894,1.41103 -2.16982,2.38339 -3.46597,2.93305m0.09956,-1.91867c2.50122,-0.75429 4.09954,-4.74813 3.23441,-8.07898c-0.26738,-1.08483 -1.00303,-2.81775 -1.65278,-2.83551c-0.69262,1.65604 -1.31571,3.37139 -2.07479,4.97193c-1.6669,0.40605 -0.13972,-2.40464 0.21297,-3.35973c0.37816,-1.16529 1.75135,-3.05034 0.02148,-3.02243c-1.21443,-0.16736 -2.50504,-0.00552 -3.48747,1.11076c-2.10835,1.93213 -2.50739,6.35133 -0.91075,9.0153c1.08088,1.94074 2.94744,2.76584 4.65693,2.19866l0,0zm17.50005,-0.00048c2.13488,-0.69463 3.67116,-3.73324 3.39483,-6.74901c-0.14615,-3.3515 -2.55972,-6.06202 -4.95923,-5.61155c-1.79805,-0.23566 -0.07662,2.0503 0.18039,3.16162c0.24451,1.18002 1.59145,2.62935 0.83945,3.78012c-1.68663,0.09785 -3.41462,-0.06871 -5.09662,0.1668c0.3021,3.08869 2.41285,5.64371 4.69049,5.40735c0.31964,-0.0036 0.64082,-0.04105 0.9507,-0.15533l-0.00001,0zm-6.89026,-6.90269c0.20315,-2.41668 1.19234,-4.61497 2.63497,-5.99046c0.08523,-0.59281 -0.7883,-3.32321 -1.10815,-1.41964c-0.98727,2.4851 -1.97975,4.96687 -2.93677,7.47451c0.45846,0.01536 0.9724,0.12622 1.40995,-0.06441zm5.15343,-0.11986c-0.56911,-1.48162 -1.15086,-2.95435 -1.74571,-4.41646c-1.19328,0.87143 -1.97831,2.71561 -2.16388,4.55634c1.30291,-0.03847 2.62768,0.09427 3.91298,-0.09613l-0.00339,-0.04375l0,0l0,0zm-5.58154,-5.3442c0.56129,-1.43461 1.13323,-2.86167 1.67719,-4.30902c-2.36528,-0.07343 -4.73591,-0.08951 -7.10039,0.01552c1.2145,2.89058 2.31173,5.89313 3.63967,8.6821c0.6421,-1.36775 1.18744,-2.94244 1.78353,-4.38859l0,-0.00001z" id="svg_29" stroke="#c700ff"/>
   <text fill="#000000" stroke="#c700ff" stroke-width="0" fill-opacity="null" x="96.5" y="148.421875" id="svg_30" font-size="18" font-family="Helvetica, Arial, sans-serif" text-anchor="start" xml:space="preserve">Flash drives</text>
   <text fill="#000000" stroke="#c700ff" stroke-width="0" fill-opacity="null" x="245.5" y="149.421875" id="svg_31" font-size="18" font-family="Helvetica, Arial, sans-serif" text-anchor="start" xml:space="preserve">Whats App</text>
   <text fill="#000000" stroke="#c700ff" stroke-width="0" fill-opacity="null" x="390.5" y="144.421875" id="svg_32" font-size="18" font-family="Helvetica, Arial, sans-serif" text-anchor="start" xml:space="preserve">HotLib App</text>
   <g id="svg_36" fill-rule="nonzero" stroke="null">
    <g id="svg_35" stroke="null">
     <path d="m158.1439,359l0,18.19745" id="svg_33" stroke-width="21" stroke-linecap="round" stroke="#E1E1E1"/>
     <ellipse id="svg_34" fill="#1A1A1A" cx="158.177439" cy="358.549364" rx="4.339203" ry="4.549364" stroke="null"/>
    </g>
   </g>
   <g id="svg_40" fill-rule="nonzero" stroke="null">
    <g id="svg_39" stroke="null">
     <path d="m158.1439,360.29325l0,22.9042" id="svg_37" stroke-width="21" stroke-linecap="round" stroke="#00b3e6" fill="#000000"/>
     <ellipse id="svg_38" fill="#000000" cx="158.177439" cy="359.226053" rx="4.339203" ry="5.226053" stroke="#00b3e6"/>
     <ellipse id="svg_44" fill="#000000" cx="158.177439" cy="359.226053" rx="4.339203" ry="5.226053" stroke="#00b3e6"/>
    </g>
   </g>
   <g id="svg_43" fill-rule="nonzero" stroke="null">
    <path d="m195.58088,366.52898l0,17.47102" id="svg_41" stroke-width="21" stroke-linecap="round" fill="#f7f8f9" stroke="#c700ff"/>
    <circle id="svg_42" fill="#f7f8f9" cx="195.580885" cy="366.672182" r="0.376252" stroke="#c700ff"/>
   </g>
   <ellipse fill="#09090a" stroke="#070707" stroke-width="null" cx="196.5" cy="363.921875" id="svg_46" rx="4" ry="3.5"/>
   <g id="svg_50" fill-rule="nonzero" stroke="null">
    <path d="m349.23271,381.27109l0,-118.75664" id="svg_48" stroke-width="21" stroke-linecap="round" stroke="#c700ff" transform="rotate(-0.2234857827425003 349.2326965332115,321.8927612304602) "/>
   </g>
   <ellipse fill="#000000" stroke-width="null" cx="552.5" cy="83.421875" id="svg_58" rx="5" ry="5" stroke="#070707"/>
   <text fill="#000000" stroke-width="0" fill-opacity="null" x="164.5" y="48.921875" id="svg_65" font-size="18" font-family="Helvetica, Arial, sans-serif" text-anchor="start" xml:space="preserve" transform="matrix(1,0,0,1.399999976158142,0,-15.168749095872045) " stroke="#e5e5e5">Access</text>
  </g>
  <ellipse fill="#1A1A1A" stroke-width="null" stroke-opacity="null" fill-opacity="null" cx="352.5" cy="269.421875" id="svg_57" rx="5" ry="6" stroke="null"/>
 </g>
</svg>